<svg width="450" height="255" viewBox="0 0 450 255" fill="none" xmlns="http://www.w3.org/2000/svg">
<path fill-rule="evenodd" clip-rule="evenodd" d="M395.624 1.49846C386.374 3.36521 374.606 7.76526 366.474 12.3969L360.204 15.9681L351.111 13.9855C334.723 10.4132 310.22 13.4348 294.002 21.0278C265.113 34.5516 240.894 60.9803 227.58 93.5099C223.935 102.413 218.097 124.301 215.918 137.227C213.785 149.885 209.328 165.722 203.844 180.126C193.285 207.857 177.563 225.828 159.525 230.786C150.786 233.188 144.723 233.084 132.991 230.331C124.815 228.412 100.593 218.844 100.593 217.532C100.593 217.305 103.645 212.826 107.375 207.577C132.568 172.133 149.482 125.096 153.415 79.5433C154.865 62.7494 154.158 58.7763 148.911 54.2184C146.073 51.7521 144.722 51.4977 134.533 51.5125C125.986 51.5239 122.257 52.0314 118.994 53.6268C107.613 59.1884 101.819 68.9832 101.819 82.6614C101.819 97.4422 94.9435 137.757 88.156 162.775C84.9321 174.656 74.9869 202.863 73.7761 203.554C73.2572 203.852 68.1135 202.59 62.3478 200.751C41.6601 194.15 24.0981 195.278 11.6663 204.005C3.32937 209.858 0 216.141 0 226.019C0 235.295 2.4314 240.493 9.55753 246.453C16.7205 252.442 24.8329 254.54 38.6595 253.98C49.0941 253.558 50.9575 253.112 60.3078 248.797C65.9336 246.2 73.8289 241.546 77.8526 238.454L85.1676 232.832L90.12 235.977C111.871 249.789 141.525 257.175 163.392 254.223C183.72 251.48 200.285 243.409 218.198 227.52C232.057 215.226 241.709 202.934 250.313 186.621C264.161 158.842 264.161 150.225 268.849 123.074C272.904 99.5818 276.669 81.0206 285.969 64.0847C298.566 41.1431 312.903 30.6796 334.531 28.6447L342.874 27.859L338.247 32.8643C321.621 50.8494 311.225 67.7683 306.565 84.426C305.15 89.4801 303.725 99.117 303.349 106.147C302.774 116.928 303.055 119.94 305.258 126.654C308.332 136.022 313.371 142.843 320.389 147.141C324.966 149.942 326.604 150.278 335.426 150.225C343.64 150.175 346.527 149.63 352.366 147.026C368.162 139.984 382.329 121.059 389.03 98.0519C392.646 85.633 392.963 61.992 389.67 50.1011C387.353 41.7279 381.33 31.1497 375.845 25.8196L372.792 22.8515L381.754 19.7606C386.683 18.0608 395.502 16.1055 401.35 15.414C414.431 13.8685 423.369 15.1766 435.715 20.4442C444.151 24.0437 444.407 24.0801 446.098 21.9408C448.557 18.8273 450.685 11.6884 449.793 9.5389C448.865 7.30198 439.832 3.62524 429.983 1.47461C420.935 -0.501152 405.472 -0.489793 395.624 1.49846ZM128.402 12.3572C72.7641 16.9185 27.5943 41.4395 12.3373 75.3613C2.1517 98.0088 5.33509 124.057 19.9407 137.575C26.9429 144.058 35.9668 148.98 39.1391 148.048C40.6603 147.602 42.2183 145.369 43.3603 141.999C47.3092 130.356 47.1902 129.604 40.9363 126.639C22.4052 117.854 18.3631 98.4016 30.3949 75.9098C37.2352 63.1207 58.1634 46.7275 79.0511 37.7946C121.08 19.8197 175.74 23.3306 200.13 45.5704C208.32 53.0375 213.818 62.4689 217.533 75.4226C219.113 80.9298 221.038 85.6307 221.809 85.8692C222.582 86.1076 224.601 83.3995 226.297 79.851C229.976 72.1513 236.659 61.7183 243.265 53.3611C249.153 45.9134 248.681 44.3191 238.348 36.7488C222.751 25.3223 202.17 17.3034 180.278 14.1229C164.827 11.878 143.212 11.1422 128.402 12.3572ZM363.017 39.1731C382.248 59.3962 374.906 113.918 350.522 131.962C346.835 134.691 344.412 135.48 338.515 135.875C331.242 136.362 331.055 136.301 326.527 131.894C320.567 126.094 318.952 120.77 318.952 106.902C318.952 89.0236 325.079 71.2395 336.934 54.7066C341.852 47.8494 355.317 33.8964 357.018 33.8964C357.558 33.8964 360.258 36.2707 363.017 39.1731ZM264.161 176.709C263.376 177.171 260.84 181.379 258.527 186.06C253.519 196.193 245.607 208.362 239.056 216.008C236.444 219.056 234.307 222.105 234.307 222.783C234.307 223.461 238.369 228.387 243.265 232.832C257.532 245.782 271.675 254.27 294.002 254.223C310.899 254.187 325.219 245.465 342.484 235.97C352.647 230.381 369.153 216.072 378.59 204.667C386.107 195.583 386.283 194.374 380.594 190.878C378.134 189.365 377.431 189.724 369.62 196.472C342.824 219.626 317.245 227.286 296.152 218.477C284.344 213.547 276.9 204.181 271.774 187.808C267.806 175.136 267.526 174.727 264.161 176.709ZM54.5482 215.421L64.3204 219.687L58.8099 224.788C50.3699 232.6 43.4892 235.229 32.9245 234.676C24.9813 234.26 23.9484 233.913 20.711 230.559C15.2287 224.88 16.0678 216.308 22.4162 213.121C30.8599 208.881 41.2749 209.627 54.5482 215.421Z" fill="#00C056"/>
<path fill-rule="evenodd" clip-rule="evenodd" d="M395.624 1.49846C386.374 3.36521 374.606 7.76526 366.474 12.3969L360.204 15.9681L351.111 13.9855C334.723 10.4132 310.22 13.4348 294.002 21.0278C265.113 34.5516 240.894 60.9803 227.58 93.5099C223.935 102.413 218.097 124.301 215.918 137.227C213.785 149.885 209.328 165.722 203.844 180.126C193.285 207.857 177.563 225.828 159.525 230.786C150.786 233.188 144.723 233.084 132.991 230.331C124.815 228.412 100.593 218.844 100.593 217.532C100.593 217.305 103.645 212.826 107.375 207.577C132.568 172.133 149.482 125.096 153.415 79.5433C154.865 62.7494 154.158 58.7763 148.911 54.2184C146.073 51.7521 144.722 51.4977 134.533 51.5125C125.986 51.5239 122.257 52.0314 118.994 53.6268C107.613 59.1884 101.819 68.9832 101.819 82.6614C101.819 97.4422 94.9435 137.757 88.156 162.775C84.9321 174.656 74.9869 202.863 73.7761 203.554C73.2572 203.852 68.1135 202.59 62.3478 200.751C41.6601 194.15 24.0981 195.278 11.6663 204.005C3.32937 209.858 0 216.141 0 226.019C0 235.295 2.4314 240.493 9.55753 246.453C16.7205 252.442 24.8329 254.54 38.6595 253.98C49.0941 253.558 50.9575 253.112 60.3078 248.797C65.9336 246.2 73.8289 241.546 77.8526 238.454L85.1676 232.832L90.12 235.977C111.871 249.789 141.525 257.175 163.392 254.223C183.72 251.48 200.285 243.409 218.198 227.52C232.057 215.226 241.709 202.934 250.313 186.621C264.161 158.842 264.161 150.225 268.849 123.074C272.904 99.5818 276.669 81.0206 285.969 64.0847C298.566 41.1431 312.903 30.6796 334.531 28.6447L342.874 27.859L338.247 32.8643C321.621 50.8494 311.225 67.7683 306.565 84.426C305.15 89.4801 303.725 99.117 303.349 106.147C302.774 116.928 303.055 119.94 305.258 126.654C308.332 136.022 313.371 142.843 320.389 147.141C324.966 149.942 326.604 150.278 335.426 150.225C343.64 150.175 346.527 149.63 352.366 147.026C368.162 139.984 382.329 121.059 389.03 98.0519C392.646 85.633 392.963 61.992 389.67 50.1011C387.353 41.7279 381.33 31.1497 375.845 25.8196L372.792 22.8515L381.754 19.7606C386.683 18.0608 395.502 16.1055 401.35 15.414C414.431 13.8685 423.369 15.1766 435.715 20.4442C444.151 24.0437 444.407 24.0801 446.098 21.9408C448.557 18.8273 450.685 11.6884 449.793 9.5389C448.865 7.30198 439.832 3.62524 429.983 1.47461C420.935 -0.501152 405.472 -0.489793 395.624 1.49846ZM128.402 12.3572C72.7641 16.9185 27.5943 41.4395 12.3373 75.3613C2.1517 98.0088 5.33509 124.057 19.9407 137.575C26.9429 144.058 35.9668 148.98 39.1391 148.048C40.6603 147.602 42.2183 145.369 43.3603 141.999C47.3092 130.356 47.1902 129.604 40.9363 126.639C22.4052 117.854 18.3631 98.4016 30.3949 75.9098C37.2352 63.1207 58.1634 46.7275 79.0511 37.7946C121.08 19.8197 175.74 23.3306 200.13 45.5704C208.32 53.0375 213.818 62.4689 217.533 75.4226C219.113 80.9298 221.038 85.6307 221.809 85.8692C222.582 86.1076 224.601 83.3995 226.297 79.851C229.976 72.1513 236.659 61.7183 243.265 53.3611C249.153 45.9134 248.681 44.3191 238.348 36.7488C222.751 25.3223 202.17 17.3034 180.278 14.1229C164.827 11.878 143.212 11.1422 128.402 12.3572ZM363.017 39.1731C382.248 59.3962 374.906 113.918 350.522 131.962C346.835 134.691 344.412 135.48 338.515 135.875C331.242 136.362 331.055 136.301 326.527 131.894C320.567 126.094 318.952 120.77 318.952 106.902C318.952 89.0236 325.079 71.2395 336.934 54.7066C341.852 47.8494 355.317 33.8964 357.018 33.8964C357.558 33.8964 360.258 36.2707 363.017 39.1731ZM264.161 176.709C263.376 177.171 260.84 181.379 258.527 186.06C253.519 196.193 245.607 208.362 239.056 216.008C236.444 219.056 234.307 222.105 234.307 222.783C234.307 223.461 238.369 228.387 243.265 232.832C257.532 245.782 271.675 254.27 294.002 254.223C310.899 254.187 325.219 245.465 342.484 235.97C352.647 230.381 369.153 216.072 378.59 204.667C386.107 195.583 386.283 194.374 380.594 190.878C378.134 189.365 377.431 189.724 369.62 196.472C342.824 219.626 317.245 227.286 296.152 218.477C284.344 213.547 276.9 204.181 271.774 187.808C267.806 175.136 267.526 174.727 264.161 176.709ZM54.5482 215.421L64.3204 219.687L58.8099 224.788C50.3699 232.6 43.4892 235.229 32.9245 234.676C24.9813 234.26 23.9484 233.913 20.711 230.559C15.2287 224.88 16.0678 216.308 22.4162 213.121C30.8599 208.881 41.2749 209.627 54.5482 215.421Z" fill="#00C056"/>
</svg>
